<?xml version="1.0" standalone="no"?><!DOCTYPE svg PUBLIC "-//W3C//DTD SVG 1.1//EN" "http://www.w3.org/Graphics/SVG/1.1/DTD/svg11.dtd"><svg t="1534749268592" class="icon" style="" viewBox="0 0 1024 1024" version="1.1" xmlns="http://www.w3.org/2000/svg" p-id="2990" xmlns:xlink="http://www.w3.org/1999/xlink" width="13" height="13"><defs><style type="text/css"></style></defs><path d="M465.408 732.672c-6.656 0-13.824-2.048-19.456-6.656-13.312-10.752-15.36-30.208-4.608-43.008L578.048 514.56 432.64 367.616c-11.776-11.776-11.776-31.232 0-43.52 11.776-11.776 31.232-11.776 43.52 0l164.864 165.888c11.264 11.264 11.776 28.672 2.048 40.96l-153.6 189.44c-6.144 8.192-14.848 12.288-24.064 12.288z" fill="#b0aeae" p-id="2991"></path><path d="M512 1024C229.888 1024 0 794.112 0 512S229.888 0 512 0s512 229.888 512 512-229.888 512-512 512z m0-956.416C266.752 67.584 67.584 267.264 67.584 512S266.752 956.416 512 956.416 956.416 756.736 956.416 512 757.248 67.584 512 67.584z" fill="#b0aeae" p-id="2992"></path></svg>