<?xml version="1.0" encoding="utf-8"?>
<!-- Generator: Adobe Illustrator 22.0.1, SVG Export Plug-In . SVG Version: 6.00 Build 0)  -->
<svg version="1.1" id="图层_1" xmlns="http://www.w3.org/2000/svg" xmlns:xlink="http://www.w3.org/1999/xlink" x="0px" y="0px"
	 viewBox="0 0 200 200" style="enable-background:new 0 0 200 200;" xml:space="preserve">
<style type="text/css">
	.st0{fill:#CCCCCC;}
</style>
<path class="st0" d="M99.6,110.2c-26.6,0-48.2-21.6-48.2-48.1c0-26.5,21.6-48.1,48.2-48.1c26.6,0,48.2,21.6,48.2,48.1
	C147.8,88.6,126.2,110.2,99.6,110.2z M99.6,24.7c-20.7,0-37.5,16.8-37.5,37.4c0,20.6,16.8,37.4,37.5,37.4s37.5-16.8,37.5-37.4
	C137.1,41.5,120.2,24.7,99.6,24.7z"/>
<path class="st0" d="M170.6,185H30.1l6.4-57.2l29.8-11.9l4,9.9l-23.8,9.5l-4.3,39h116.6l-4.3-39l-23.8-9.5l4-9.9l29.8,11.9
	L170.6,185z"/>
</svg>
